<svg width="1920" height="1080" viewBox="0 0 1920 1080" fill="none" xmlns="http://www.w3.org/2000/svg">
<rect width="1920" height="1080" fill="#1D1E22"/>
<rect x="504" y="74" width="912" height="68" fill="white" stroke="black" stroke-width="2"/>
<path d="M518.18 116.781C518.18 110.922 523.336 109.609 527.742 109.281C529.359 109.164 533.484 108.953 534.633 108.906V106.844C534.633 103.609 532.711 101.734 528.867 101.734C525.633 101.734 523.711 103.234 523.148 105.156H518.93C519.445 101.078 523.43 98.2188 529.055 98.2188C532.383 98.2188 538.617 99.2031 538.617 107.219V124H534.633V120.531H534.445C533.602 122.266 531.258 124.609 526.852 124.609C522.023 124.609 518.18 121.75 518.18 116.781ZM522.211 116.969C522.211 119.641 524.461 121 527.555 121C532.102 121 534.633 117.953 534.633 114.766V112.188L528.211 112.656C524.555 112.891 522.211 114.203 522.211 116.969ZM545.086 124V98.5469H549.117V124H545.086ZM547.102 94.3281C545.555 94.3281 544.289 93.1562 544.289 91.6562C544.289 90.1562 545.555 88.9844 547.102 88.9844C548.648 88.9844 549.961 90.1562 549.961 91.6562C549.961 93.1562 548.648 94.3281 547.102 94.3281ZM565.148 89.3594C571.289 89.4062 575.648 95.0312 575.695 103.891C575.648 112.75 571.289 118.375 565.148 118.375C558.961 118.375 554.648 112.75 554.648 103.891C554.648 95.0312 558.961 89.4062 565.148 89.3594ZM565.148 92.6406C561.023 92.6875 558.117 97.0938 558.117 103.891C558.117 110.688 561.023 115.094 565.148 115.094C569.32 115.094 572.133 110.688 572.133 103.891C572.133 97.0938 569.32 92.6875 565.148 92.6406ZM592.992 96.625V99.7656H586.242V109.047H592.992V112.141H586.242V127.797H582.586V86.125H586.242V96.625H592.992ZM599.883 124.281C598.242 124.281 596.836 122.922 596.883 121.234C596.836 119.594 598.242 118.234 599.883 118.234C601.523 118.234 602.883 119.594 602.883 121.234C602.883 122.922 601.523 124.281 599.883 124.281ZM654.023 86.125V127.891H650.32V86.125H654.023ZM631.852 89.3594C638.039 89.4062 642.492 95.0312 642.492 103.891C642.492 112.75 638.039 118.375 631.852 118.375C625.617 118.375 621.211 112.75 621.211 103.891C621.211 95.0312 625.617 89.4062 631.852 89.3594ZM631.852 92.6406C627.68 92.6875 624.773 97.0938 624.773 103.891C624.773 110.688 627.68 115.094 631.852 115.094C636.023 115.094 638.93 110.688 638.93 103.891C638.93 97.0938 636.023 92.6875 631.852 92.6406ZM686.695 90.0625V124H682.43V94.4688H682.242L673.992 99.9531V95.6875L682.43 90.0625H686.695ZM706.805 124.469C700.664 124.469 696.023 120.672 695.789 115.469H699.867C700.195 118.516 703.148 120.766 706.805 120.766C711.211 120.766 714.398 117.531 714.398 113.266C714.398 108.859 711.07 105.625 706.523 105.578C703.664 105.531 701.461 106.422 700.195 108.625H696.117L698.508 90.0625H716.883V93.8125H702.023L700.758 103.75H701.086C702.586 102.578 704.883 101.781 707.273 101.781C713.742 101.781 718.523 106.562 718.523 113.172C718.523 119.734 713.555 124.469 706.805 124.469ZM757.43 86.125V110.828H753.727V104.266H743.977V107.828H724.852V89.3125H743.977V92.9219H753.727V86.125H757.43ZM728.508 92.3125V104.828H740.367V92.3125H728.508ZM743.602 112.047C752.273 112.047 757.57 114.906 757.57 119.922C757.57 124.891 752.273 127.703 743.602 127.703C734.93 127.703 729.633 124.891 729.633 119.922C729.633 114.906 734.93 112.047 743.602 112.047ZM743.602 114.906C737.227 114.953 733.242 116.781 733.289 119.922C733.242 122.922 737.227 124.797 743.602 124.797C749.977 124.797 753.914 122.922 753.914 119.922C753.914 116.781 749.977 114.953 743.602 114.906ZM743.977 101.172H753.727V95.9688H743.977V101.172ZM810.82 86.1719V116.641H807.164V86.1719H810.82ZM812.133 123.812V126.906H783.914V113.547H787.57V123.812H812.133ZM788.32 89.0781C794.555 89.0781 799.242 93.2969 799.242 99.2969C799.242 105.391 794.555 109.562 788.32 109.562C782.086 109.562 777.398 105.391 777.398 99.2969C777.398 93.2969 782.086 89.0781 788.32 89.0781ZM788.32 92.3125C784.102 92.3125 780.961 95.2188 781.008 99.2969C780.961 103.469 784.102 106.328 788.32 106.328C792.445 106.328 795.633 103.469 795.633 99.2969C795.633 95.2188 792.445 92.3125 788.32 92.3125ZM855.867 103.75V106.75H838.664V110.875H850.992V120.203H826.242V124.422H852.258V127.328H822.586V117.438H847.383V113.734H822.492V110.875H835.008V106.75H817.898V103.75H855.867ZM850.945 87.5312V100.234H822.82V87.5312H850.945ZM826.477 90.4844V97.2812H847.289V90.4844H826.477ZM897.398 103.656V106.609H859.383V103.656H897.398ZM892.852 97.2344V100.234H864.445V87.5781H892.43V90.5312H868.148V97.2344H892.852ZM892.477 110.359V120.016H867.727V124.328H893.742V127.328H864.07V117.25H888.867V113.219H863.977V110.359H892.477ZM939.023 119.547V122.641H900.867V119.547H918.023V111.672H905.648V98.8281H930.586V92.2656H905.555V89.2188H934.195V101.828H909.305V108.625H935.18V111.672H921.633V119.547H939.023ZM992.555 119.359V122.453H954.398V119.359H971.602V109.234H975.305V119.359H992.555ZM975.305 94.0469C975.305 100.703 983.555 106.422 990.727 107.594L989.227 110.5C982.852 109.258 976.125 105.203 973.477 99.3906C970.781 105.227 964.078 109.375 957.82 110.688L956.273 107.734C963.305 106.516 971.508 100.703 971.508 94.0469V93.0156H957.539V89.9219H989.273V93.0156H975.305V94.0469ZM1030.43 86.125V110.969H1026.73V100.047H1018.34V97H1026.73V86.125H1030.43ZM1016.6 112.281C1025.27 112.281 1030.57 115.094 1030.57 120.016C1030.57 124.938 1025.27 127.75 1016.6 127.797C1007.93 127.75 1002.63 124.938 1002.63 120.016C1002.63 115.094 1007.93 112.281 1016.6 112.281ZM1016.6 115.141C1010.23 115.141 1006.24 116.969 1006.29 120.016C1006.24 123.016 1010.23 124.844 1016.6 124.844C1022.98 124.844 1026.91 123.016 1026.91 120.016C1026.91 116.969 1022.98 115.141 1016.6 115.141ZM1010.37 93.7656C1010.37 99.2031 1014.54 104.359 1020.63 106.469L1018.71 109.422C1014.02 107.734 1010.39 104.242 1008.63 99.9062C1006.8 104.805 1002.94 108.719 997.992 110.594L996.07 107.641C1002.26 105.391 1006.66 99.7656 1006.66 93.8125V92.2656H997.242V89.1719H1019.7V92.2656H1010.37V93.7656ZM1059.77 88.7031V91.75H1043.51V96.9531H1058.6V99.9062H1043.51V105.438C1052.39 105.484 1057.31 105.273 1063.2 104.266L1063.57 107.266C1057.48 108.344 1052.37 108.438 1043.18 108.438H1039.8V88.7031H1059.77ZM1071.77 86.1719V111.016H1068.12V86.1719H1071.77ZM1071.77 113.078V127.234H1044.68V113.078H1071.77ZM1048.29 116.031V124.234H1068.16V116.031H1048.29ZM1125.26 86.125V127.891H1121.55V86.125H1125.26ZM1103.09 89.3594C1109.27 89.4062 1113.73 95.0312 1113.73 103.891C1113.73 112.75 1109.27 118.375 1103.09 118.375C1096.85 118.375 1092.45 112.75 1092.45 103.891C1092.45 95.0312 1096.85 89.4062 1103.09 89.3594ZM1103.09 92.6406C1098.91 92.6875 1096.01 97.0938 1096.01 103.891C1096.01 110.688 1098.91 115.094 1103.09 115.094C1107.26 115.094 1110.16 110.688 1110.16 103.891C1110.16 97.0938 1107.26 92.6875 1103.09 92.6406ZM1154.09 90.25V117.344H1134.82V90.25H1154.09ZM1138.43 93.2031V114.344H1150.48V93.2031H1138.43ZM1166.74 86.125V127.891H1163.04V86.125H1166.74ZM1188.77 98.9219C1188.77 106 1193.93 113.172 1200.07 115.844L1198.01 118.75C1193.13 116.523 1188.91 111.719 1186.99 105.953C1185.02 112.07 1180.83 117.391 1176.07 119.781L1173.87 116.875C1179.82 114.016 1185.02 106.141 1185.07 98.9219V93.4844H1175.23V90.4375H1198.71V93.4844H1188.77V98.9219ZM1208.23 86.125V127.797H1204.52V86.125H1208.23ZM1248.45 89.9219V109.094H1229.18V89.9219H1248.45ZM1232.79 92.9219V106.141H1244.88V92.9219H1232.79ZM1259.98 86.125V98.8281H1266.26V101.922H1259.98V116.688H1256.32V86.125H1259.98ZM1261.9 123.812V126.906H1233.91V113.781H1237.52V123.812H1261.9ZM1306.9 103.656V106.609H1268.88V103.656H1306.9ZM1302.35 97.2344V100.234H1273.95V87.5781H1301.93V90.5312H1277.65V97.2344H1302.35ZM1301.98 110.359V120.016H1277.23V124.328H1303.24V127.328H1273.57V117.25H1298.37V113.219H1273.48V110.359H1301.98ZM1321.57 89.3594C1327.24 89.4062 1331.32 94.2578 1331.93 102.062H1341.26V86.125H1344.91V127.891H1341.26V105.109H1331.98C1331.53 113.266 1327.38 118.375 1321.57 118.375C1315.43 118.375 1311.12 112.75 1311.12 103.891C1311.12 95.0312 1315.43 89.4062 1321.57 89.3594ZM1321.57 92.6406C1317.45 92.6875 1314.63 97.0938 1314.63 103.891C1314.63 110.688 1317.45 115.094 1321.57 115.094C1325.65 115.094 1328.51 110.688 1328.51 103.891C1328.51 97.0938 1325.65 92.6875 1321.57 92.6406ZM1367.18 93.0156C1367.18 96.9531 1371.59 100.375 1377.54 101.547L1376.04 104.406C1371.16 103.352 1367.27 100.914 1365.4 97.6094C1363.57 101.219 1359.63 103.914 1354.52 105.062L1352.98 102.203C1359.12 100.938 1363.48 97.2344 1363.48 93.0156V92.2656H1354.38V89.2188H1376.46V92.2656H1367.18V93.0156ZM1386.35 86.1719V127.844H1382.6V117.719H1372.99V114.859H1382.6V86.1719H1386.35ZM1351.66 108.391C1359.49 108.438 1370.13 108.344 1379.32 107.031L1379.55 109.797C1375.45 110.5 1371.19 110.922 1367.04 111.156V126.531H1363.34V111.344C1359.33 111.531 1355.53 111.555 1352.18 111.578L1351.66 108.391ZM1397.74 124.281C1396.1 124.281 1394.7 122.922 1394.74 121.234C1394.7 119.594 1396.1 118.234 1397.74 118.234C1399.38 118.234 1400.74 119.594 1400.74 121.234C1400.74 122.922 1399.38 124.281 1397.74 124.281Z" fill="black"/>
</svg>
